<?xml version="1.0" standalone="no"?>
<!DOCTYPE svg PUBLIC "-//W3C//DTD SVG 20010904//EN"
 "http://www.w3.org/TR/2001/REC-SVG-20010904/DTD/svg10.dtd">
<svg version="1.0" xmlns="http://www.w3.org/2000/svg"
 width="1536.000000pt" height="1024.000000pt" viewBox="0 0 1536.000000 1024.000000"
 preserveAspectRatio="xMidYMid meet">

<g transform="translate(0.000000,1024.000000) scale(0.100000,-0.100000)"
fill="#00D1B2" stroke="none">
<path d="M3370 9211 c-86 -28 -159 -91 -203 -175 -30 -57 -32 -68 -32 -161 1
-122 16 -157 114 -258 l66 -69 5 -406 c6 -488 -3 -450 155 -612 78 -81 105
-115 109 -141 4 -19 7 -307 9 -642 l2 -607 -227 0 -227 0 -3 533 -3 532 -27
50 c-17 32 -90 113 -207 229 -161 160 -179 181 -167 195 41 45 37 173 -7 238
-41 62 -126 103 -212 103 -118 -1 -226 -122 -225 -252 1 -72 61 -162 132 -199
45 -23 135 -25 193 -4 l40 14 115 -112 c194 -189 222 -220 246 -272 l24 -50 0
-502 0 -503 -330 0 -330 0 0 383 c0 335 -2 388 -17 432 -14 41 -40 72 -138
170 -162 163 -135 155 -537 155 l-318 0 0 103 c0 56 5 118 10 137 10 35 19 47
117 177 65 84 83 133 90 248 9 148 -32 270 -126 376 -64 72 -125 111 -226 144
-71 24 -90 27 -165 21 -47 -3 -99 -10 -117 -15 -68 -20 -160 -78 -218 -137
-107 -109 -151 -223 -143 -374 7 -129 54 -236 159 -360 67 -80 82 -127 88
-280 l6 -136 36 -49 c55 -77 102 -98 218 -99 115 -1 151 14 223 93 l47 51 314
0 315 0 58 -44 c72 -53 184 -169 210 -216 17 -32 19 -64 21 -390 1 -195 -1
-363 -3 -372 -4 -15 -34 -17 -312 -20 l-307 -3 -51 -27 c-27 -14 -67 -45 -88
-68 -72 -80 -70 -66 -76 -550 l-5 -435 -245 -5 c-277 -6 -291 -9 -364 -90 -74
-82 -71 -47 -74 -712 l-3 -596 -27 -7 c-45 -11 -102 -56 -130 -104 -23 -40
-27 -57 -27 -127 0 -72 3 -86 30 -129 19 -31 49 -61 79 -80 45 -27 58 -30 132
-30 75 0 86 3 126 30 23 17 58 55 76 85 27 46 32 63 32 120 0 111 -58 198
-153 229 l-38 13 3 588 3 588 31 39 c61 75 71 78 327 81 l227 3 0 -403 0 -404
26 -52 c32 -64 95 -121 160 -145 43 -15 88 -17 347 -17 l297 0 0 -215 c0 -180
-3 -221 -16 -248 -9 -18 -156 -172 -327 -344 l-310 -312 -57 6 c-148 15 -260
-88 -260 -239 0 -138 88 -227 226 -228 180 0 289 200 190 351 l-24 36 310 309
c170 170 321 329 336 354 27 45 27 47 32 285 l5 240 297 3 297 2 3 -407 3
-408 27 -55 c21 -43 78 -105 255 -281 190 -189 236 -229 278 -245 48 -18 97
-19 1295 -19 l1245 0 60 29 c78 39 188 148 223 224 l27 57 5 550 5 550 300 0
300 0 5 -480 c6 -543 0 -506 91 -597 90 -90 100 -92 442 -96 l297 -3 0 -72 c1
-228 1 -534 0 -544 0 -10 -210 -13 -1018 -13 l-1018 0 -50 -25 c-51 -26 -119
-88 -359 -325 l-140 -139 -60 16 c-114 30 -218 -11 -280 -111 -26 -43 -30 -59
-30 -120 0 -98 28 -155 102 -204 130 -86 300 -36 360 107 22 50 21 157 -1 199
-9 18 -13 38 -9 45 21 33 423 417 453 433 34 18 73 19 1044 19 l1009 0 4 -80
c3 -58 11 -94 29 -130 31 -64 39 -74 95 -117 95 -72 38 -69 1324 -66 l1150 3
51 27 c56 30 102 77 136 141 23 42 23 47 28 542 l5 500 155 5 c142 5 159 8
205 32 69 36 137 111 164 181 20 56 21 73 21 462 l0 403 63 7 c34 3 123 5 197
3 l135 -3 5 -675 c5 -640 6 -677 24 -715 12 -25 104 -123 240 -257 l220 -217
-13 -41 c-36 -121 4 -228 109 -293 50 -31 168 -31 228 1 107 57 152 215 93
330 -55 107 -189 152 -301 101 l-44 -20 -199 198 c-110 109 -212 216 -228 237
l-29 39 0 652 c0 561 2 654 14 658 8 3 71 6 140 6 l126 1 0 -173 c0 -232 -2
-228 218 -447 96 -96 186 -177 212 -191 45 -24 47 -24 445 -29 378 -5 402 -6
432 -25 17 -11 123 -110 235 -220 l204 -201 -19 -43 c-68 -156 37 -321 203
-321 127 0 234 126 217 255 -20 143 -155 229 -286 184 l-32 -11 -222 219
c-199 197 -228 222 -280 241 -55 21 -74 22 -428 22 -310 0 -376 2 -406 15 -44
19 -322 289 -364 354 -29 45 -29 45 -29 208 l0 163 278 0 c157 0 293 5 314 10
61 17 151 91 179 146 23 47 24 59 29 309 l5 260 240 -1 c187 0 246 -4 267 -15
14 -8 142 -128 283 -267 l258 -252 -22 -66 c-24 -75 -22 -113 14 -184 42 -83
104 -120 200 -120 133 0 224 93 226 229 2 104 -58 194 -148 225 -58 20 -78 20
-141 0 l-51 -17 -256 254 c-193 192 -269 261 -313 284 l-57 30 -252 3 -253 4
0 204 0 204 194 0 c177 0 199 2 253 22 66 26 129 83 165 150 22 42 23 51 26
356 l3 313 61 72 c125 149 214 309 249 448 18 71 21 103 16 206 -5 120 -5 122
20 145 40 36 160 223 218 338 121 241 202 532 235 840 15 141 -15 198 -97 187
-59 -7 -141 -31 -218 -62 -420 -168 -722 -408 -920 -730 -8 -12 -31 -17 -95
-21 -136 -7 -253 -53 -375 -145 -27 -21 -102 -95 -165 -164 -63 -70 -122 -131
-132 -136 -9 -5 -145 -9 -302 -9 -261 0 -290 -2 -339 -20 -47 -18 -80 -47
-260 -229 -257 -259 -260 -264 -264 -456 l-3 -130 -393 -5 c-446 -6 -447 -6
-529 -87 -26 -25 -57 -69 -70 -97 -22 -51 -22 -55 -24 -571 -2 -286 -3 -523
-3 -527 -1 -5 -282 -8 -626 -8 l-625 0 0 89 0 89 238 4 c215 3 241 5 282 24
65 30 107 69 138 128 l27 51 5 585 c4 420 8 591 17 605 6 11 28 36 48 55 l36
35 259 3 258 3 7 -23 c33 -109 185 -164 281 -102 66 43 89 86 89 168 0 61 -4
77 -28 112 -36 53 -92 79 -168 79 -67 -1 -123 -32 -159 -89 l-22 -36 -261 0
-262 0 -51 -30 c-59 -33 -99 -77 -128 -140 -20 -44 -21 -60 -23 -624 l-2 -579
-23 -33 c-61 -85 -94 -94 -349 -94 l-209 0 0 395 c0 382 -1 397 -21 438 -29
58 -99 128 -120 122 -10 -3 -20 -1 -24 4 -4 7 1 8 11 4 12 -4 15 -3 10 5 -18
30 -109 42 -308 42 l-198 0 0 123 c0 98 3 129 18 154 19 35 762 790 831 844
l43 34 637 5 637 5 91 53 91 52 144 0 144 0 13 -37 c38 -109 134 -164 257
-148 192 24 276 271 141 414 -45 47 -101 71 -170 71 -68 0 -110 -16 -161 -60
-38 -33 -76 -96 -76 -125 0 -13 -22 -15 -155 -15 l-154 0 -88 -47 -88 -48
-635 -5 -635 -5 -55 -28 c-43 -23 -145 -119 -471 -445 -267 -268 -422 -431
-435 -457 -15 -33 -20 -67 -22 -187 l-3 -148 -355 0 -354 0 0 254 c0 209 3
256 14 266 11 8 98 13 292 17 320 6 344 12 429 98 72 74 75 94 82 512 l6 363
916 2 916 3 49 23 c38 17 116 88 327 297 174 174 290 280 312 290 54 22 857
23 857 0 0 -23 0 -22 16 -67 31 -90 132 -158 235 -158 82 0 150 37 197 108 32
48 37 64 40 127 6 116 -37 194 -135 245 -51 26 -150 29 -205 6 -39 -17 -114
-88 -124 -118 -5 -16 -34 -18 -437 -20 l-432 -3 -59 -28 c-49 -22 -104 -72
-330 -296 -212 -211 -282 -274 -320 -290 -47 -21 -61 -21 -939 -21 l-892 0 0
242 c0 234 -1 245 -24 295 -28 63 -93 126 -164 159 l-52 24 -768 0 -767 0 -63
-28 c-85 -39 -148 -110 -171 -192 -14 -50 -17 -99 -15 -278 l2 -217 -384 -5
c-379 -5 -385 -5 -429 -29 -29 -15 -181 -158 -435 -411 l-390 -388 -66 5 c-81
7 -128 -7 -180 -54 -49 -44 -73 -113 -67 -193 14 -188 223 -271 372 -148 77
63 100 189 52 280 l-24 45 377 377 c333 333 382 378 429 396 48 19 77 20 396
20 l345 0 3 -367 3 -368 26 -55 c33 -71 100 -135 167 -160 47 -18 79 -20 315
-20 144 -1 278 -5 298 -10 68 -19 69 -20 74 -288 l5 -242 -640 0 c-622 0 -641
-1 -695 -21 -68 -25 -137 -90 -168 -155 -21 -47 -22 -62 -24 -349 l-3 -300
-575 0 -576 0 -2 300 c-2 295 -2 301 -26 347 -38 74 -77 114 -139 145 -54 26
-66 28 -224 31 l-167 4 -3 657 -3 656 -28 60 c-19 42 -55 87 -116 150 -49 50
-94 100 -100 112 -7 15 -11 144 -11 404 l0 382 68 71 c83 87 112 154 112 257
0 187 -126 317 -314 325 -45 2 -92 0 -106 -5z m185 -125 c59 -27 96 -67 120
-131 34 -86 4 -168 -101 -277 -47 -48 -64 -74 -65 -95 0 -15 0 -201 0 -413 l1
-385 25 -50 c14 -28 64 -91 114 -142 65 -68 93 -104 105 -139 14 -42 16 -123
16 -681 l0 -633 -40 0 -40 0 0 629 c0 743 12 672 -134 821 -51 52 -102 111
-112 130 -18 32 -19 69 -25 460 -3 234 -6 426 -7 428 -1 2 -35 38 -76 81 -50
53 -78 90 -85 117 -35 126 23 253 134 292 51 18 116 13 170 -12z m-2452 -623
c-7 -2 -21 -2 -30 0 -10 3 -4 5 12 5 17 0 24 -2 18 -5z m10837 -38 c16 -8 42
-31 57 -52 72 -94 -13 -234 -135 -220 -55 6 -91 32 -116 81 -23 47 -23 73 -1
120 35 74 126 107 195 71z m-10665 -92 c103 -53 182 -159 203 -274 12 -62 -2
-189 -26 -235 -11 -21 -44 -70 -72 -109 -75 -100 -103 -165 -110 -255 l-5 -75
-57 -3 -58 -3 0 140 c0 129 2 141 20 151 28 15 110 119 110 140 0 25 -27 50
-52 50 -13 0 -43 -23 -74 -55 -29 -30 -57 -55 -61 -55 -4 0 -30 25 -56 55 -55
63 -94 73 -116 31 -17 -31 1 -66 74 -142 l56 -57 -3 -126 -3 -126 -55 0 -55 0
-7 60 c-11 107 -24 135 -114 246 -96 117 -133 233 -115 350 20 124 89 224 191
278 89 48 103 51 220 48 95 -3 111 -6 165 -34z m6761 0 c48 -25 91 -73 102
-111 4 -15 7 -306 7 -647 l0 -620 -25 -50 c-15 -29 -43 -63 -68 -82 l-44 -33
-281 0 c-310 0 -327 -3 -371 -63 -20 -27 -21 -45 -26 -305 l-5 -277 -62 -3
-63 -3 0 251 c0 279 -3 294 -63 347 -53 46 -104 53 -406 53 -262 0 -269 1
-301 23 -53 35 -89 87 -99 143 -13 67 -4 1246 10 1281 16 43 48 77 97 100 l47
23 755 -2 755 -3 41 -22z m-5441 -435 c54 -25 84 -111 57 -167 -48 -97 -178
-107 -232 -18 -68 110 55 240 175 185z m6283 -165 c-10 -2 -26 -2 -35 0 -10 3
-2 5 17 5 19 0 27 -2 18 -5z m55 0 c-7 -2 -19 -2 -25 0 -7 3 -2 5 12 5 14 0
19 -2 13 -5z m304 1 c-3 -3 -12 -4 -19 -1 -8 3 -5 6 6 6 11 1 17 -2 13 -5z
m70 0 c-3 -3 -12 -4 -19 -1 -8 3 -5 6 6 6 11 1 17 -2 13 -5z m40 0 c-3 -3 -12
-4 -19 -1 -8 3 -5 6 6 6 11 1 17 -2 13 -5z m131 -1 c-10 -2 -26 -2 -35 0 -10
3 -2 5 17 5 19 0 27 -2 18 -5z m-7064 -39 c3 -8 2 -12 -4 -9 -6 3 -10 10 -10
16 0 14 7 11 14 -7z m8719 -1 c-7 -2 -19 -2 -25 0 -7 3 -2 5 12 5 14 0 19 -2
13 -5z m-2846 -29 c-3 -3 -12 -4 -19 -1 -8 3 -5 6 6 6 11 1 17 -2 13 -5z m76
-1 c-7 -2 -19 -2 -25 0 -7 3 -2 5 12 5 14 0 19 -2 13 -5z m495 0 c-10 -2 -26
-2 -35 0 -10 3 -2 5 17 5 19 0 27 -2 18 -5z m885 0 c-7 -2 -21 -2 -30 0 -10 3
-4 5 12 5 17 0 24 -2 18 -5z m235 0 c-10 -2 -26 -2 -35 0 -10 3 -2 5 17 5 19
0 27 -2 18 -5z m3828 -12 c98 -45 148 -152 117 -255 -20 -66 -52 -107 -112
-139 -142 -78 -322 28 -322 187 0 91 49 173 126 207 52 24 138 24 191 0z
m-2641 -60 c56 -25 76 -52 83 -107 6 -60 -16 -103 -68 -133 -58 -32 -112 -28
-156 12 -31 28 -37 42 -41 83 -8 75 25 128 92 152 41 14 45 14 90 -7z m-5775
5 c0 -2 -8 -10 -17 -17 -16 -13 -17 -12 -4 4 13 16 21 21 21 13z m-4123 -342
c-12 -72 -74 -114 -168 -114 -100 0 -159 45 -159 120 l0 30 166 0 167 0 -6
-36z m11555 -482 c68 -54 179 -140 248 -192 69 -52 178 -136 243 -187 l117
-93 0 -423 0 -422 -24 -50 c-13 -27 -36 -62 -52 -77 -55 -51 -87 -58 -284 -58
l-181 0 1 190 c1 104 -1 194 -5 200 -16 26 -43 30 -69 9 l-26 -20 -2 -742 -3
-742 -27 -41 c-18 -28 -44 -50 -79 -68 l-53 -26 -1097 0 c-1180 0 -1136 -2
-1210 51 -16 11 -38 38 -49 59 -19 38 -20 62 -20 892 0 956 -5 890 73 952 l39
31 1024 5 c896 4 1026 7 1034 20 15 23 12 62 -7 82 -14 16 -34 18 -175 18
l-158 0 0 55 0 55 105 113 c105 113 123 145 93 175 -29 29 -56 12 -172 -113
l-116 -125 0 -80 0 -80 -365 0 -365 0 0 115 c0 82 5 127 15 153 19 44 357 390
424 433 l45 29 478 0 478 0 122 -98z m-8276 48 c16 -6 40 -26 53 -45 89 -131
-84 -271 -196 -159 -27 26 -33 40 -33 73 0 102 83 163 176 131z m5867 -87 c-7
-2 -19 -2 -25 0 -7 3 -2 5 12 5 14 0 19 -2 13 -5z m-3865 -40 c-10 -2 -26 -2
-35 0 -10 3 -2 5 17 5 19 0 27 -2 18 -5z m3922 -73 c46 -65 2 -160 -74 -160
-62 0 -90 21 -110 83 -3 10 1 35 10 56 30 76 127 87 174 21z m-733 -6 c-3 -3
-12 -4 -19 -1 -8 3 -5 6 6 6 11 1 17 -2 13 -5z m110 -1 c-20 -2 -52 -2 -70 0
-17 2 0 4 38 4 39 0 53 -2 32 -4z m101 0 c-10 -2 -28 -2 -40 0 -13 2 -5 4 17
4 22 1 32 -1 23 -4z m70 0 c-10 -2 -26 -2 -35 0 -10 3 -2 5 17 5 19 0 27 -2
18 -5z m95 0 c-7 -2 -19 -2 -25 0 -7 3 -2 5 12 5 14 0 19 -2 13 -5z m-356 -69
c-3 -3 -12 -4 -19 -1 -8 3 -5 6 6 6 11 1 17 -2 13 -5z m50 0 c-3 -3 -12 -4
-19 -1 -8 3 -5 6 6 6 11 1 17 -2 13 -5z m171 -1 c-10 -2 -26 -2 -35 0 -10 3
-2 5 17 5 19 0 27 -2 18 -5z m160 0 c-10 -2 -26 -2 -35 0 -10 3 -2 5 17 5 19
0 27 -2 18 -5z m1109 -205 c-2 -13 -4 -5 -4 17 -1 22 1 32 4 23 2 -10 2 -28 0
-40z m0 -105 c-3 -10 -5 -4 -5 12 0 17 2 24 5 18 2 -7 2 -21 0 -30z m-3140
-119 c-3 -3 -12 -4 -19 -1 -8 3 -5 6 6 6 11 1 17 -2 13 -5z m4300 -31 c-3 -10
-5 -4 -5 12 0 17 2 24 5 18 2 -7 2 -21 0 -30z m-8047 -77 c0 -6 -11 2 -25 18
-32 37 -32 46 0 16 14 -13 25 -28 25 -34z m-116 -20 c21 -15 46 -42 57 -60 18
-30 19 -62 19 -898 l0 -866 -33 -44 c-18 -24 -52 -53 -77 -66 l-45 -22 -1241
2 -1240 3 -42 27 c-22 15 -52 47 -67 71 l-25 44 2 865 3 865 29 37 c16 21 47
47 70 57 39 18 87 19 1297 16 l1256 -2 37 -29z m4442 15 c23 -10 54 -36 70
-57 l29 -37 2 -861 3 -861 -23 -45 c-14 -26 -42 -58 -66 -75 l-43 -30 -1416 0
-1417 0 -40 23 c-55 31 -82 75 -95 152 -7 45 -10 316 -8 870 l3 805 25 43 c14
25 42 54 65 68 l40 24 1415 0 c1360 0 1417 -1 1456 -19z m131 -193 c-3 -8 -6
-5 -6 6 -1 11 2 17 5 13 3 -3 4 -12 1 -19z m-4410 -35 c-3 -10 -5 -2 -5 17 0
19 2 27 5 18 2 -10 2 -26 0 -35z m-2880 -160 c-3 -10 -5 -2 -5 17 0 19 2 27 5
18 2 -10 2 -26 0 -35z m2880 -60 c-2 -21 -4 -4 -4 37 0 41 2 58 4 38 2 -21 2
-55 0 -75z m4410 25 c-3 -8 -6 -5 -6 6 -1 11 2 17 5 13 3 -3 4 -12 1 -19z
m-7290 -140 c-2 -29 -3 -6 -3 52 0 58 1 81 3 53 2 -29 2 -77 0 -105z m7290 50
c-3 -8 -6 -5 -6 6 -1 11 2 17 5 13 3 -3 4 -12 1 -19z m0 -70 c-3 -7 -5 -2 -5
12 0 14 2 19 5 13 2 -7 2 -19 0 -25z m-4410 -80 c-2 -18 -4 -6 -4 27 0 33 2
48 4 33 2 -15 2 -42 0 -60z m4410 -10 c-3 -7 -5 -2 -5 12 0 14 2 19 5 13 2 -7
2 -19 0 -25z m0 -40 c-3 -8 -6 -5 -6 6 -1 11 2 17 5 13 3 -3 4 -12 1 -19z
m-3237 -249 l0 -149 -575 0 -575 0 0 150 0 150 568 2 c312 2 570 2 575 0 4 -2
7 -70 7 -153z m-4053 24 c-3 -10 -5 -4 -5 12 0 17 2 24 5 18 2 -7 2 -21 0 -30z
m11290 -125 c-3 -8 -6 -5 -6 6 -1 11 2 17 5 13 3 -3 4 -12 1 -19z m-8410 -20
c-3 -8 -6 -5 -6 6 -1 11 2 17 5 13 3 -3 4 -12 1 -19z m140 -44 c-3 -3 -12 -4
-19 -1 -8 3 -5 6 6 6 11 1 17 -2 13 -5z m4686 -41 c-7 -2 -19 -2 -25 0 -7 3
-2 5 12 5 14 0 19 -2 13 -5z m80 0 c-7 -2 -19 -2 -25 0 -7 3 -2 5 12 5 14 0
19 -2 13 -5z m124 1 c-3 -3 -12 -4 -19 -1 -8 3 -5 6 6 6 11 1 17 -2 13 -5z
m-8590 -81 c-3 -10 -5 -2 -5 17 0 19 2 27 5 18 2 -10 2 -26 0 -35z m680 -5
c-2 -13 -4 -5 -4 17 -1 22 1 32 4 23 2 -10 2 -28 0 -40z m2880 -10 c-2 -13 -4
-5 -4 17 -1 22 1 32 4 23 2 -10 2 -28 0 -40z m1175 -265 l3 -318 28 -58 c32
-64 94 -122 160 -149 36 -14 79 -17 285 -17 l242 -1 0 -527 c0 -612 6 -569
-107 -682 -118 -118 40 -106 -1353 -106 -1211 0 -1215 0 -1260 21 -31 14 -113
88 -262 235 -212 210 -216 215 -228 269 -7 37 -10 172 -8 420 l3 365 262 3
262 2 3 -287 c3 -277 4 -290 26 -331 33 -62 235 -267 301 -305 l56 -32 632 -3
632 -3 20 -44 c13 -29 34 -53 62 -72 37 -24 52 -28 113 -28 62 0 77 4 119 30
60 38 87 90 87 169 0 116 -69 188 -189 194 -90 5 -144 -23 -186 -96 l-30 -52
-605 3 -605 2 -45 24 c-25 13 -86 64 -136 112 -50 49 -94 87 -97 84 -4 -3 -5
-2 -3 1 3 3 -8 30 -25 58 l-29 53 0 255 c0 224 2 257 16 262 9 3 114 6 235 6
192 0 225 2 269 19 75 29 138 85 169 150 l26 56 3 318 4 317 573 0 574 0 3
-317z m4254 267 l310 0 2 -295 c2 -324 3 -332 66 -410 19 -22 58 -54 87 -70
l54 -30 375 -5 375 -5 3 -390 c3 -444 1 -452 -74 -526 -53 -52 -117 -69 -266
-69 l-107 0 -3 203 c-3 197 -4 203 -30 252 -32 60 -87 115 -148 147 l-45 23
-1185 0 c-1133 0 -1187 -1 -1222 -19 -62 -30 -125 -93 -155 -154 -27 -57 -28
-58 -31 -294 l-4 -238 -267 0 c-302 0 -332 5 -396 67 -66 64 -65 55 -65 553
l0 450 777 0 776 0 52 25 c63 31 125 89 151 141 17 35 19 66 22 339 2 164 7
302 11 305 5 3 148 4 318 3 169 -1 448 -2 619 -3z m-8989 -112 c-2 -18 -4 -4
-4 32 0 36 2 50 4 33 2 -18 2 -48 0 -65z m7970 60 c-3 -8 -6 -5 -6 6 -1 11 2
17 5 13 3 -3 4 -12 1 -19z m-7290 -90 c-3 -8 -6 -5 -6 6 -1 11 2 17 5 13 3 -3
4 -12 1 -19z m-680 -120 c-2 -24 -4 -7 -4 37 0 44 2 63 4 43 2 -21 2 -57 0
-80z m7970 30 c-2 -13 -4 -5 -4 17 -1 22 1 32 4 23 2 -10 2 -28 0 -40z m4000
10 c-3 -7 -5 -2 -5 12 0 14 2 19 5 13 2 -7 2 -19 0 -25z m-11290 0 c-3 -8 -6
-5 -6 6 -1 11 2 17 5 13 3 -3 4 -12 1 -19z m-680 -601 c-1 -89 -3 -13 -3 168
0 182 2 254 3 162 2 -93 2 -241 0 -330z m7970 441 c-3 -7 -5 -2 -5 12 0 14 2
19 5 13 2 -7 2 -19 0 -25z m-7290 -15 c-3 -10 -5 -4 -5 12 0 17 2 24 5 18 2
-7 2 -21 0 -30z m7290 -65 c-3 -7 -5 -2 -5 12 0 14 2 19 5 13 2 -7 2 -19 0
-25z m5381 -178 c80 -49 94 -143 30 -207 -61 -61 -142 -56 -194 13 -84 109 47
265 164 194z m-1448 -110 c-8 -5 -19 -10 -25 -10 -5 0 -3 5 5 10 8 5 20 10 25
10 6 0 3 -5 -5 -10z m-10942 -47 c-10 -2 -26 -2 -35 0 -10 3 -2 5 17 5 19 0
27 -2 18 -5z m85 0 c-13 -2 -33 -2 -45 0 -13 2 -3 4 22 4 25 0 35 -2 23 -4z
m115 0 c-15 -2 -42 -2 -60 0 -18 2 -6 4 27 4 33 0 48 -2 33 -4z m149 0 c-20
-2 -52 -2 -70 0 -17 2 0 4 38 4 39 0 53 -2 32 -4z m466 0 c-7 -2 -19 -2 -25 0
-7 3 -2 5 12 5 14 0 19 -2 13 -5z m230 0 c-7 -2 -21 -2 -30 0 -10 3 -4 5 12 5
17 0 24 -2 18 -5z m95 0 c-10 -2 -28 -2 -40 0 -13 2 -5 4 17 4 22 1 32 -1 23
-4z m279 1 c-3 -3 -12 -4 -19 -1 -8 3 -5 6 6 6 11 1 17 -2 13 -5z m131 -1
c-10 -2 -28 -2 -40 0 -13 2 -5 4 17 4 22 1 32 -1 23 -4z m80 0 c-10 -2 -26 -2
-35 0 -10 3 -2 5 17 5 19 0 27 -2 18 -5z m109 1 c-3 -3 -12 -4 -19 -1 -8 3 -5
6 6 6 11 1 17 -2 13 -5z m256 -1 c-7 -2 -21 -2 -30 0 -10 3 -4 5 12 5 17 0 24
-2 18 -5z m160 0 c-7 -2 -21 -2 -30 0 -10 3 -4 5 12 5 17 0 24 -2 18 -5z m100
0 c-13 -2 -33 -2 -45 0 -13 2 -3 4 22 4 25 0 35 -2 23 -4z m1825 0 c-10 -2
-26 -2 -35 0 -10 3 -2 5 17 5 19 0 27 -2 18 -5z m80 0 c-10 -2 -26 -2 -35 0
-10 3 -2 5 17 5 19 0 27 -2 18 -5z m139 1 c-3 -3 -12 -4 -19 -1 -8 3 -5 6 6 6
11 1 17 -2 13 -5z m40 0 c-3 -3 -12 -4 -19 -1 -8 3 -5 6 6 6 11 1 17 -2 13 -5z
m541 -1 c-10 -2 -26 -2 -35 0 -10 3 -2 5 17 5 19 0 27 -2 18 -5z m59 1 c-3 -3
-12 -4 -19 -1 -8 3 -5 6 6 6 11 1 17 -2 13 -5z m50 0 c-3 -3 -12 -4 -19 -1 -8
3 -5 6 6 6 11 1 17 -2 13 -5z m781 -1 c-10 -2 -26 -2 -35 0 -10 3 -2 5 17 5
19 0 27 -2 18 -5z m145 0 c-7 -2 -21 -2 -30 0 -10 3 -4 5 12 5 17 0 24 -2 18
-5z m95 0 c-10 -2 -26 -2 -35 0 -10 3 -2 5 17 5 19 0 27 -2 18 -5z m65 0 c-7
-2 -21 -2 -30 0 -10 3 -4 5 12 5 17 0 24 -2 18 -5z m100 0 c-7 -2 -19 -2 -25
0 -7 3 -2 5 12 5 14 0 19 -2 13 -5z m54 1 c-3 -3 -12 -4 -19 -1 -8 3 -5 6 6 6
11 1 17 -2 13 -5z m106 -1 c-7 -2 -21 -2 -30 0 -10 3 -4 5 12 5 17 0 24 -2 18
-5z m70 0 c-7 -2 -19 -2 -25 0 -7 3 -2 5 12 5 14 0 19 -2 13 -5z m75 0 c-10
-2 -26 -2 -35 0 -10 3 -2 5 17 5 19 0 27 -2 18 -5z m145 0 c-24 -2 -62 -2 -85
0 -24 2 -5 4 42 4 47 0 66 -2 43 -4z m165 0 c-21 -2 -57 -2 -80 0 -24 2 -7 4
37 4 44 0 63 -2 43 -4z m2020 0 c-10 -2 -28 -2 -40 0 -13 2 -5 4 17 4 22 1 32
-1 23 -4z m55 0 c-7 -2 -19 -2 -25 0 -7 3 -2 5 12 5 14 0 19 -2 13 -5z m220 0
c-18 -2 -48 -2 -65 0 -18 2 -4 4 32 4 36 0 50 -2 33 -4z m115 0 c-16 -2 -40
-2 -55 0 -16 2 -3 4 27 4 30 0 43 -2 28 -4z m59 1 c-3 -3 -12 -4 -19 -1 -8 3
-5 6 6 6 11 1 17 -2 13 -5z m480 0 c-3 -3 -12 -4 -19 -1 -8 3 -5 6 6 6 11 1
17 -2 13 -5z m906 -1 c-23 -2 -64 -2 -90 0 -26 2 -7 3 42 3 50 0 71 -1 48 -3z
m150 0 c-7 -2 -19 -2 -25 0 -7 3 -2 5 12 5 14 0 19 -2 13 -5z m-9536 -100 c-2
-16 -4 -3 -4 27 0 30 2 43 4 28 2 -16 2 -40 0 -55z m8620 -45 c-3 -8 -6 -5 -6
6 -1 11 2 17 5 13 3 -3 4 -12 1 -19z m-8620 -95 c-2 -21 -4 -4 -4 37 0 41 2
58 4 38 2 -21 2 -55 0 -75z m620 5 c-2 -13 -4 -5 -4 17 -1 22 1 32 4 23 2 -10
2 -28 0 -40z m8000 15 c-3 -10 -5 -4 -5 12 0 17 2 24 5 18 2 -7 2 -21 0 -30z
m-8000 -65 c-3 -8 -6 -5 -6 6 -1 11 2 17 5 13 3 -3 4 -12 1 -19z m8000 -30
c-3 -7 -5 -2 -5 12 0 14 2 19 5 13 2 -7 2 -19 0 -25z m-8000 -75 c-3 -10 -5
-2 -5 17 0 19 2 27 5 18 2 -10 2 -26 0 -35z m8000 -5 c-2 -13 -4 -5 -4 17 -1
22 1 32 4 23 2 -10 2 -28 0 -40z m-10812 22 c3 -5 1 -10 -4 -10 -6 0 -11 5
-11 10 0 6 2 10 4 10 3 0 8 -4 11 -10z m-6 -25 c52 -26 81 -71 81 -124 0 -155
-195 -206 -266 -69 -57 110 76 250 185 193z m2198 -27 c-3 -8 -6 -5 -6 6 -1
11 2 17 5 13 3 -3 4 -12 1 -19z m620 -40 c-3 -8 -6 -5 -6 6 -1 11 2 17 5 13 3
-3 4 -12 1 -19z m8000 -135 c-2 -32 -3 -8 -3 52 0 61 1 87 3 58 2 -29 2 -78 0
-110z m-8680 105 c-3 -8 -6 -5 -6 6 -1 11 2 17 5 13 3 -3 4 -12 1 -19z m7438
-9 c58 -27 102 -92 110 -162 3 -29 5 -356 3 -727 l-3 -675 -28 -47 c-17 -29
-44 -57 -71 -73 l-43 -25 -1141 0 c-1120 0 -1142 0 -1192 20 -28 11 -56 17
-62 14 -6 -4 -8 -2 -5 3 4 6 0 16 -7 22 -8 7 -24 32 -35 56 -23 48 -22 15 -21
1001 l0 472 33 48 c21 30 50 57 78 71 l44 22 1148 1 c1144 0 1147 0 1192 -21z
m-7378 -132 c-2 -23 -3 -1 -3 48 0 50 1 68 3 42 2 -26 2 -67 0 -90z m4860 -89
c-2 -13 -4 -3 -4 22 0 25 2 35 4 23 2 -13 2 -33 0 -45z m3760 5 c-3 -10 -5 -4
-5 12 0 17 2 24 5 18 2 -7 2 -21 0 -30z m-8620 -35 c-2 -13 -4 -5 -4 17 -1 22
1 32 4 23 2 -10 2 -28 0 -40z m8620 -40 c-2 -13 -4 -5 -4 17 -1 22 1 32 4 23
2 -10 2 -28 0 -40z m856 25 c-7 -2 -19 -2 -25 0 -7 3 -2 5 12 5 14 0 19 -2 13
-5z m-6928 -43 c3 -5 1 -10 -4 -10 -6 0 -11 5 -11 10 0 6 2 10 4 10 3 0 8 -4
11 -10z m-79 -34 c28 -28 34 -42 34 -76 0 -34 -6 -48 -34 -76 -38 -38 -77 -44
-124 -20 -44 22 -62 50 -64 94 -1 45 11 65 57 94 48 29 91 24 131 -16z m25 7
c13 -16 12 -17 -3 -4 -10 7 -18 15 -18 17 0 8 8 3 21 -13z m2366 -20 c-3 -10
-5 -4 -5 12 0 17 2 24 5 18 2 -7 2 -21 0 -30z m0 -165 c-2 -29 -3 -8 -3 47 0
55 1 79 3 53 2 -26 2 -71 0 -100z m3760 -15 c-3 -10 -5 -4 -5 12 0 17 2 24 5
18 2 -7 2 -21 0 -30z m0 -75 c-2 -13 -4 -5 -4 17 -1 22 1 32 4 23 2 -10 2 -28
0 -40z m-724 35 c-7 -2 -19 -2 -25 0 -7 3 -2 5 12 5 14 0 19 -2 13 -5z m-3526
-19 c-3 -3 -12 -4 -19 -1 -8 3 -5 6 6 6 11 1 17 -2 13 -5z m100 0 c-3 -3 -12
-4 -19 -1 -8 3 -5 6 6 6 11 1 17 -2 13 -5z m56 -1 c-7 -2 -21 -2 -30 0 -10 3
-4 5 12 5 17 0 24 -2 18 -5z m-369 -52 c4 -5 -3 -7 -14 -4 -23 6 -26 13 -6 13
8 0 17 -4 20 -9z m4463 -43 c-2 -13 -4 -5 -4 17 -1 22 1 32 4 23 2 -10 2 -28
0 -40z m-10080 -54 c88 -55 70 -202 -28 -234 -83 -28 -158 21 -166 107 -11
110 104 184 194 127z m6320 -46 c-2 -13 -4 -5 -4 17 -1 22 1 32 4 23 2 -10 2
-28 0 -40z m6040 -27 c80 -37 98 -141 35 -204 -42 -41 -114 -49 -156 -16 -80
63 -65 183 29 225 39 17 42 17 92 -5z m-6040 -168 c-2 -32 -3 -6 -3 57 0 63 1
89 3 58 2 -32 2 -84 0 -115z m2650 45 c-2 -13 -4 -3 -4 22 0 25 2 35 4 23 2
-13 2 -33 0 -45z m-4510 36 c-3 -3 -12 -4 -19 -1 -8 3 -5 6 6 6 11 1 17 -2 13
-5z m-40 -10 c-3 -3 -12 -4 -19 -1 -8 3 -5 6 6 6 11 1 17 -2 13 -5z m4550
-146 c-3 -8 -6 -5 -6 6 -1 11 2 17 5 13 3 -3 4 -12 1 -19z m-2650 -195 c-2
-21 -4 -6 -4 32 0 39 2 55 4 38 2 -18 2 -50 0 -70z m2650 -55 c-2 -24 -4 -7
-4 37 0 44 2 63 4 43 2 -21 2 -57 0 -80z m-4574 -25 c-13 -2 -33 -2 -45 0 -13
2 -3 4 22 4 25 0 35 -2 23 -4z m104 1 c-3 -3 -12 -4 -19 -1 -8 3 -5 6 6 6 11
1 17 -2 13 -5z m71 -1 c-10 -2 -28 -2 -40 0 -13 2 -5 4 17 4 22 1 32 -1 23 -4z
m150 0 c-16 -2 -40 -2 -55 0 -16 2 -3 4 27 4 30 0 43 -2 28 -4z m59 1 c-3 -3
-12 -4 -19 -1 -8 3 -5 6 6 6 11 1 17 -2 13 -5z m136 -1 c-24 -2 -62 -2 -85 0
-24 2 -5 4 42 4 47 0 66 -2 43 -4z m200 0 c-18 -2 -48 -2 -65 0 -18 2 -4 4 32
4 36 0 50 -2 33 -4z m80 0 c-7 -2 -21 -2 -30 0 -10 3 -4 5 12 5 17 0 24 -2 18
-5z m215 0 c-10 -2 -28 -2 -40 0 -13 2 -5 4 17 4 22 1 32 -1 23 -4z m245 0
c-13 -2 -33 -2 -45 0 -13 2 -3 4 22 4 25 0 35 -2 23 -4z m225 0 c-26 -2 -71
-2 -100 0 -29 2 -8 3 47 3 55 0 79 -1 53 -3z m115 0 c-7 -2 -21 -2 -30 0 -10
3 -4 5 12 5 17 0 24 -2 18 -5z m140 0 c-13 -2 -33 -2 -45 0 -13 2 -3 4 22 4
25 0 35 -2 23 -4z m4622 -37 c97 -41 100 -191 6 -244 -47 -27 -74 -27 -127 -3
-69 31 -95 127 -51 192 24 37 78 69 115 69 12 0 38 -6 57 -14z m-4438 -28 c-3
-8 -6 -5 -6 6 -1 11 2 17 5 13 3 -3 4 -12 1 -19z m0 -100 c-2 -13 -4 -3 -4 22
0 25 2 35 4 23 2 -13 2 -33 0 -45z m2430 -234 c-3 -3 -12 -4 -19 -1 -8 3 -5 6
6 6 11 1 17 -2 13 -5z m118 -44 c-3 -5 -12 -10 -18 -10 -7 0 -6 4 3 10 19 12
23 12 15 0z m-5278 -120 c68 -41 88 -112 53 -185 -26 -54 -70 -85 -120 -85
-77 0 -150 67 -150 139 0 110 127 186 217 131z"/>
<path d="M7159 7763 l-396 -398 -52 -150 c-84 -244 -84 -242 -61 -265 16 -16
24 -17 52 -9 18 6 103 30 189 54 86 23 167 48 180 55 33 18 777 759 795 792
32 62 23 82 -99 204 l-112 114 -50 0 -50 0 -396 -397z m529 214 c39 -40 72
-77 72 -83 0 -14 -67 -92 -90 -104 -15 -8 -32 5 -99 73 l-81 82 54 53 c30 28
58 52 63 52 5 0 41 -33 81 -73z m-182 -196 l72 -76 -258 -264 -257 -263 -85
86 -84 85 260 260 c142 142 264 257 270 254 6 -3 43 -40 82 -82z m-633 -691
c-56 -19 -105 -32 -108 -29 -2 3 14 49 36 102 l41 97 67 -67 66 -68 -102 -35z"/>
<path d="M13639 7529 c-33 -35 -46 -88 -29 -118 16 -31 69 -61 108 -61 24 0
42 9 63 29 63 64 22 167 -70 176 -39 3 -47 0 -72 -26z m154 -84 c-3 -9 -8 -14
-10 -11 -3 3 -2 9 2 15 9 16 15 13 8 -4z"/>
<path d="M12546 6598 c-42 -45 -76 -89 -76 -98 0 -23 32 -50 57 -50 23 0 157
136 165 168 9 34 -9 62 -41 62 -24 0 -43 -15 -105 -82z"/>
<path d="M12808 6528 c-16 -18 -67 -77 -114 -131 -83 -97 -98 -129 -72 -155
30 -30 56 -13 167 115 117 133 134 170 92 193 -30 16 -40 13 -73 -22z"/>
<path d="M12933 6198 c-232 -261 -293 -341 -291 -373 3 -27 7 -30 40 -33 34
-3 39 1 79 55 24 31 66 82 93 113 49 53 115 128 205 233 46 54 59 90 41 112
-29 35 -56 18 -167 -107z m-259 -384 c3 -8 2 -12 -4 -9 -6 3 -10 10 -10 16 0
14 7 11 14 -7z"/>
<path d="M13107 6014 c-72 -76 -82 -93 -73 -128 5 -22 12 -26 40 -26 30 0 42
9 95 71 62 71 76 110 49 137 -23 23 -49 11 -111 -54z"/>
<path d="M11475 5690 c-146 -22 -272 -83 -383 -185 -324 -300 -291 -839 68
-1109 129 -97 265 -140 435 -139 187 1 326 49 457 157 127 106 213 233 249
373 41 162 34 324 -21 464 -48 120 -167 262 -286 340 -125 83 -346 125 -519
99z m522 -358 c34 -40 29 -79 -18 -153 -63 -96 -399 -538 -423 -554 -11 -8
-38 -15 -59 -15 -44 0 -88 37 -238 202 -85 93 -89 100 -89 143 0 52 30 89 80
100 42 9 79 -15 151 -95 51 -58 68 -70 88 -68 26 3 78 63 277 326 47 62 100
122 117 133 41 25 84 18 114 -19z"/>
<path d="M2095 5798 c-2 -7 -6 -35 -7 -63 l-3 -50 -112 -5 c-106 -5 -113 -7
-149 -36 -21 -16 -43 -46 -50 -65 -9 -25 -13 -167 -13 -562 l-1 -528 24 -47
c31 -60 93 -117 143 -131 24 -7 224 -11 562 -11 511 0 526 1 568 21 57 28 118
98 132 154 15 58 15 1024 1 1077 -12 41 -50 91 -84 111 -12 7 -75 14 -146 17
l-125 5 -5 50 c-7 66 -14 75 -60 75 -44 0 -50 -9 -50 -81 l0 -49 -262 2 -263
3 -1 46 c-1 70 -7 79 -54 79 -23 0 -42 -5 -45 -12z m492 -204 c-3 -3 -12 -4
-19 -1 -8 3 -5 6 6 6 11 1 17 -2 13 -5z m90 0 c-3 -3 -12 -4 -19 -1 -8 3 -5 6
6 6 11 1 17 -2 13 -5z m-621 -24 l32 0 -2 -62 c0 -35 3 -69 7 -75 5 -7 28 -13
52 -13 50 0 53 4 57 99 l3 53 220 -1 c121 0 237 -1 257 -1 l37 0 3 -72 3 -73
50 0 50 0 3 76 3 77 111 -3 c107 -2 112 -3 135 -29 21 -25 23 -37 23 -132 l0
-104 -620 0 -620 0 0 108 c1 76 5 112 15 126 17 23 68 36 115 31 19 -3 49 -5
66 -5z m1011 -276 c-3 -3 -12 -4 -19 -1 -8 3 -5 6 6 6 11 1 17 -2 13 -5z m31
-427 c2 -345 2 -349 -20 -389 -39 -69 -28 -68 -602 -68 -282 0 -521 2 -531 6
-14 6 -16 4 -10 -6 5 -9 4 -11 -4 -6 -6 4 -9 11 -6 15 2 5 -5 17 -17 27 -45
41 -48 63 -48 422 0 186 3 342 7 345 3 4 281 6 617 5 l611 -3 3 -348z m-1031
-553 c-3 -3 -12 -4 -19 -1 -8 3 -5 6 6 6 11 1 17 -2 13 -5z m391 -1 c-10 -2
-28 -2 -40 0 -13 2 -5 4 17 4 22 1 32 -1 23 -4z m515 0 c-13 -2 -35 -2 -50 0
-16 2 -5 4 22 4 28 0 40 -2 28 -4z"/>
<path d="M2054 5052 c-9 -9 -14 -38 -14 -87 0 -97 8 -105 109 -105 108 0 116
8 115 105 -1 42 -6 81 -11 86 -15 15 -184 17 -199 1z"/>
<path d="M2463 5063 c-72 -3 -84 -7 -94 -25 -14 -26 -6 -142 11 -163 16 -19
168 -21 193 -2 17 12 23 48 19 124 -2 38 -23 76 -40 71 -4 -1 -44 -4 -89 -5z
m114 -135 c-3 -8 -6 -5 -6 6 -1 11 2 17 5 13 3 -3 4 -12 1 -19z"/>
<path d="M2730 5061 c-24 -7 -25 -11 -28 -90 -2 -53 1 -88 9 -97 17 -20 172
-20 189 1 7 8 15 43 17 77 7 86 -9 104 -97 111 -36 3 -76 2 -90 -2z"/>
<path d="M2070 4747 c-23 -12 -25 -18 -28 -101 -2 -56 1 -93 9 -102 16 -20
182 -20 198 0 13 15 17 159 6 189 -5 12 -19 17 -49 18 -22 0 -57 2 -76 5 -19
2 -46 -2 -60 -9z"/>
<path d="M2406 4751 c-35 -7 -41 -26 -41 -122 0 -92 8 -99 111 -99 110 0 114
5 114 121 0 63 -4 91 -12 94 -24 7 -143 11 -172 6z m167 -192 c-4 -4 -6 13 -3
39 l5 47 3 -39 c2 -21 0 -42 -5 -47z"/>
<path d="M6447 5618 c-15 -12 -17 -65 -20 -550 -3 -393 -1 -543 7 -560 l12
-23 279 -5 280 -5 0 -80 0 -80 -85 -5 -85 -5 -6 -37 c-3 -21 -1 -42 5 -48 14
-14 810 -14 837 0 19 11 25 43 13 74 -5 13 -24 16 -100 16 l-94 0 0 85 0 85
279 0 c278 0 280 0 295 22 14 20 16 90 16 559 0 506 -1 537 -18 552 -17 16
-87 17 -808 17 -617 0 -794 -3 -807 -12z m1541 -508 c1 -228 0 -439 -4 -467
l-5 -53 -725 0 -724 0 0 470 0 470 728 -2 727 -3 3 -415z m-1541 28 c-2 -13
-4 -3 -4 22 0 25 2 35 4 23 2 -13 2 -33 0 -45z m0 -185 c-2 -21 -4 -6 -4 32 0
39 2 55 4 38 2 -18 2 -50 0 -70z m0 -95 c-2 -13 -4 -5 -4 17 -1 22 1 32 4 23
2 -10 2 -28 0 -40z m0 -50 c-3 -8 -6 -5 -6 6 -1 11 2 17 5 13 3 -3 4 -12 1
-19z m0 -40 c-3 -8 -6 -5 -6 6 -1 11 2 17 5 13 3 -3 4 -12 1 -19z m0 -75 c-3
-10 -5 -4 -5 12 0 17 2 24 5 18 2 -7 2 -21 0 -30z m0 -80 c-3 -10 -5 -2 -5 17
0 19 2 27 5 18 2 -10 2 -26 0 -35z m943 -218 l0 -86 -142 3 -143 3 -3 69 c-2
38 -1 75 2 83 4 10 37 13 146 13 l140 0 0 -85z m-530 -109 c0 -3 -4 -8 -10
-11 -5 -3 -10 -1 -10 4 0 6 5 11 10 11 6 0 10 -2 10 -4z"/>
<path d="M7364 5380 c-11 -5 -26 -21 -32 -37 -53 -138 -182 -514 -182 -529 0
-21 40 -52 59 -47 24 6 32 25 96 213 29 85 69 198 89 250 20 52 36 103 34 113
-4 28 -38 47 -64 37z"/>
<path d="M6897 5188 c-91 -94 -107 -116 -105 -139 3 -29 132 -181 197 -232 31
-24 37 -26 55 -13 12 7 22 25 24 39 3 21 -13 43 -82 115 l-86 89 84 83 c87 86
103 116 79 150 -27 39 -53 24 -166 -92z"/>
<path d="M7482 5268 c-30 -30 -13 -63 83 -166 22 -24 42 -48 44 -54 2 -5 -38
-52 -89 -103 l-91 -94 16 -30 c27 -53 49 -42 172 83 89 89 113 119 113 141 0
21 -23 52 -96 131 -96 104 -123 121 -152 92z"/>
<path d="M9570 3231 c-70 -23 -116 -61 -162 -135 l-24 -40 -110 3 c-134 3
-217 -14 -332 -70 -265 -128 -377 -440 -251 -696 41 -84 135 -178 225 -225
194 -102 511 -107 684 -12 145 80 247 206 300 372 45 138 61 348 36 480 -9 51
-27 116 -40 145 -28 64 -94 133 -150 158 -49 21 -140 32 -176 20z m131 -157
c34 -17 59 -66 59 -115 0 -24 -10 -41 -40 -71 -60 -56 -122 -50 -168 16 -70
103 39 228 149 170z m216 -146 c-3 -8 -6 -5 -6 6 -1 11 2 17 5 13 3 -3 4 -12
1 -19z m-207 -337 c58 -42 63 -120 10 -173 -23 -23 -37 -28 -75 -28 -57 0 -80
12 -100 50 -59 114 63 226 165 151z m-627 -151 c42 -45 45 -67 17 -125 -60
-125 -250 -55 -216 79 8 34 52 84 79 89 46 10 82 -3 120 -43z m345 -85 c36
-39 41 -78 17 -125 -22 -43 -53 -60 -108 -60 -41 0 -53 5 -77 30 -56 59 -41
146 30 183 50 26 97 16 138 -28z"/>
</g>
</svg>
