<svg xmlns="http://www.w3.org/2000/svg" xmlns:xlink="http://www.w3.org/1999/xlink" width="500" zoomAndPan="magnify" viewBox="0 0 375 374.999991" height="500" preserveAspectRatio="xMidYMid meet" version="1.0"><defs><g/><clipPath id="id1"><path d="M 37.5 102.636719 L 204 102.636719 L 204 179 L 37.5 179 Z M 37.5 102.636719 " clip-rule="nonzero"/></clipPath><clipPath id="id2"><path d="M 153.421875 110.257812 L 64.636719 110.257812 C 54.722656 110.257812 45.445312 107.542969 37.5 102.835938 L 37.5 108.765625 C 37.5 136.503906 60.039062 158.992188 87.84375 158.992188 L 169.324219 158.992188 L 169.394531 159.035156 C 179.855469 159.304688 190.21875 163.402344 198.191406 171.34375 C 200.328125 173.472656 202.175781 175.765625 203.753906 178.195312 L 203.753906 160.484375 C 203.769531 132.746094 181.226562 110.257812 153.421875 110.257812 Z M 153.421875 110.257812 " clip-rule="nonzero"/></clipPath><linearGradient x1="51.086899" gradientTransform="matrix(1.360289, 0, 0, 1.357135, 37.500004, 102.834808)" y1="-13.769691" x2="73.318906" gradientUnits="userSpaceOnUse" y2="68.713232" id="id3"><stop stop-opacity="1" stop-color="rgb(34.498596%, 78.799438%, 95.698547%)" offset="0"/><stop stop-opacity="1" stop-color="rgb(34.481812%, 78.771973%, 95.703125%)" offset="0.125"/><stop stop-opacity="1" stop-color="rgb(34.350586%, 78.547668%, 95.736694%)" offset="0.128906"/><stop stop-opacity="1" stop-color="rgb(34.234619%, 78.35083%, 95.765686%)" offset="0.132812"/><stop stop-opacity="1" stop-color="rgb(34.117126%, 78.153992%, 95.794678%)" offset="0.136719"/><stop stop-opacity="1" stop-color="rgb(34.00116%, 77.957153%, 95.823669%)" offset="0.140625"/><stop stop-opacity="1" stop-color="rgb(33.883667%, 77.760315%, 95.852661%)" offset="0.144531"/><stop stop-opacity="1" stop-color="rgb(33.7677%, 77.565002%, 95.881653%)" offset="0.148438"/><stop stop-opacity="1" stop-color="rgb(33.650208%, 77.368164%, 95.910645%)" offset="0.152344"/><stop stop-opacity="1" stop-color="rgb(33.534241%, 77.171326%, 95.941162%)" offset="0.15625"/><stop stop-opacity="1" stop-color="rgb(33.416748%, 76.974487%, 95.970154%)" offset="0.160156"/><stop stop-opacity="1" stop-color="rgb(33.300781%, 76.777649%, 95.999146%)" offset="0.164062"/><stop stop-opacity="1" stop-color="rgb(33.183289%, 76.580811%, 96.028137%)" offset="0.167969"/><stop stop-opacity="1" stop-color="rgb(33.067322%, 76.383972%, 96.057129%)" offset="0.171875"/><stop stop-opacity="1" stop-color="rgb(32.958984%, 76.190186%, 96.083069%)" offset="0.179688"/><stop stop-opacity="1" stop-color="rgb(32.762146%, 75.810242%, 96.128845%)" offset="0.1875"/><stop stop-opacity="1" stop-color="rgb(32.58667%, 75.440979%, 96.168518%)" offset="0.195312"/><stop stop-opacity="1" stop-color="rgb(32.411194%, 75.07019%, 96.206665%)" offset="0.203125"/><stop stop-opacity="1" stop-color="rgb(32.235718%, 74.700928%, 96.246338%)" offset="0.210937"/><stop stop-opacity="1" stop-color="rgb(32.060242%, 74.330139%, 96.284485%)" offset="0.21875"/><stop stop-opacity="1" stop-color="rgb(31.886292%, 73.960876%, 96.324158%)" offset="0.226562"/><stop stop-opacity="1" stop-color="rgb(31.710815%, 73.590088%, 96.362305%)" offset="0.234375"/><stop stop-opacity="1" stop-color="rgb(31.535339%, 73.220825%, 96.401978%)" offset="0.242188"/><stop stop-opacity="1" stop-color="rgb(31.359863%, 72.850037%, 96.440125%)" offset="0.25"/><stop stop-opacity="1" stop-color="rgb(31.184387%, 72.480774%, 96.479797%)" offset="0.257812"/><stop stop-opacity="1" stop-color="rgb(31.008911%, 72.109985%, 96.51947%)" offset="0.265625"/><stop stop-opacity="1" stop-color="rgb(30.833435%, 71.740723%, 96.557617%)" offset="0.273437"/><stop stop-opacity="1" stop-color="rgb(30.657959%, 71.369934%, 96.59729%)" offset="0.28125"/><stop stop-opacity="1" stop-color="rgb(30.484009%, 70.999146%, 96.635437%)" offset="0.289062"/><stop stop-opacity="1" stop-color="rgb(30.308533%, 70.629883%, 96.67511%)" offset="0.296875"/><stop stop-opacity="1" stop-color="rgb(30.133057%, 70.259094%, 96.713257%)" offset="0.304688"/><stop stop-opacity="1" stop-color="rgb(29.957581%, 69.889832%, 96.75293%)" offset="0.3125"/><stop stop-opacity="1" stop-color="rgb(29.782104%, 69.519043%, 96.791077%)" offset="0.320312"/><stop stop-opacity="1" stop-color="rgb(29.606628%, 69.14978%, 96.83075%)" offset="0.328125"/><stop stop-opacity="1" stop-color="rgb(29.431152%, 68.778992%, 96.868896%)" offset="0.335938"/><stop stop-opacity="1" stop-color="rgb(29.255676%, 68.409729%, 96.908569%)" offset="0.34375"/><stop stop-opacity="1" stop-color="rgb(29.0802%, 68.03894%, 96.946716%)" offset="0.351562"/><stop stop-opacity="1" stop-color="rgb(28.90625%, 67.669678%, 96.986389%)" offset="0.359375"/><stop stop-opacity="1" stop-color="rgb(28.730774%, 67.298889%, 97.024536%)" offset="0.367188"/><stop stop-opacity="1" stop-color="rgb(28.555298%, 66.929626%, 97.064209%)" offset="0.372367"/><stop stop-opacity="1" stop-color="rgb(28.468323%, 66.744995%, 97.084045%)" offset="0.375"/><stop stop-opacity="1" stop-color="rgb(28.379822%, 66.558838%, 97.102356%)" offset="0.382813"/><stop stop-opacity="1" stop-color="rgb(28.204346%, 66.188049%, 97.142029%)" offset="0.390625"/><stop stop-opacity="1" stop-color="rgb(28.02887%, 65.818787%, 97.181702%)" offset="0.398438"/><stop stop-opacity="1" stop-color="rgb(27.853394%, 65.447998%, 97.219849%)" offset="0.40625"/><stop stop-opacity="1" stop-color="rgb(27.677917%, 65.078735%, 97.259521%)" offset="0.414062"/><stop stop-opacity="1" stop-color="rgb(27.511597%, 64.736938%, 97.297668%)" offset="0.421875"/><stop stop-opacity="1" stop-color="rgb(27.360535%, 64.453125%, 97.33429%)" offset="0.429688"/><stop stop-opacity="1" stop-color="rgb(27.217102%, 64.199829%, 97.369385%)" offset="0.4375"/><stop stop-opacity="1" stop-color="rgb(27.073669%, 63.946533%, 97.40448%)" offset="0.445312"/><stop stop-opacity="1" stop-color="rgb(26.931763%, 63.693237%, 97.441101%)" offset="0.453125"/><stop stop-opacity="1" stop-color="rgb(26.78833%, 63.439941%, 97.476196%)" offset="0.460938"/><stop stop-opacity="1" stop-color="rgb(26.644897%, 63.186646%, 97.512817%)" offset="0.46875"/><stop stop-opacity="1" stop-color="rgb(26.502991%, 62.93335%, 97.547913%)" offset="0.476562"/><stop stop-opacity="1" stop-color="rgb(26.359558%, 62.680054%, 97.583008%)" offset="0.484375"/><stop stop-opacity="1" stop-color="rgb(26.217651%, 62.426758%, 97.619629%)" offset="0.492187"/><stop stop-opacity="1" stop-color="rgb(26.074219%, 62.173462%, 97.654724%)" offset="0.5"/><stop stop-opacity="1" stop-color="rgb(25.930786%, 61.920166%, 97.691345%)" offset="0.507812"/><stop stop-opacity="1" stop-color="rgb(25.788879%, 61.66687%, 97.72644%)" offset="0.515625"/><stop stop-opacity="1" stop-color="rgb(25.645447%, 61.413574%, 97.761536%)" offset="0.523438"/><stop stop-opacity="1" stop-color="rgb(25.50354%, 61.160278%, 97.798157%)" offset="0.53125"/><stop stop-opacity="1" stop-color="rgb(25.360107%, 60.906982%, 97.833252%)" offset="0.539062"/><stop stop-opacity="1" stop-color="rgb(25.216675%, 60.653687%, 97.869873%)" offset="0.546875"/><stop stop-opacity="1" stop-color="rgb(25.074768%, 60.400391%, 97.904968%)" offset="0.554688"/><stop stop-opacity="1" stop-color="rgb(24.931335%, 60.148621%, 97.940063%)" offset="0.5625"/><stop stop-opacity="1" stop-color="rgb(24.789429%, 59.895325%, 97.976685%)" offset="0.570312"/><stop stop-opacity="1" stop-color="rgb(24.645996%, 59.642029%, 98.01178%)" offset="0.578125"/><stop stop-opacity="1" stop-color="rgb(24.502563%, 59.388733%, 98.048401%)" offset="0.585938"/><stop stop-opacity="1" stop-color="rgb(24.360657%, 59.135437%, 98.083496%)" offset="0.59375"/><stop stop-opacity="1" stop-color="rgb(24.217224%, 58.882141%, 98.118591%)" offset="0.601562"/><stop stop-opacity="1" stop-color="rgb(24.073792%, 58.628845%, 98.155212%)" offset="0.609375"/><stop stop-opacity="1" stop-color="rgb(23.931885%, 58.375549%, 98.190308%)" offset="0.617188"/><stop stop-opacity="1" stop-color="rgb(23.788452%, 58.122253%, 98.226929%)" offset="0.625"/><stop stop-opacity="1" stop-color="rgb(23.646545%, 57.868958%, 98.262024%)" offset="0.627633"/><stop stop-opacity="1" stop-color="rgb(23.574829%, 57.74231%, 98.280334%)" offset="0.632812"/><stop stop-opacity="1" stop-color="rgb(23.503113%, 57.615662%, 98.297119%)" offset="0.640625"/><stop stop-opacity="1" stop-color="rgb(23.35968%, 57.362366%, 98.33374%)" offset="0.648438"/><stop stop-opacity="1" stop-color="rgb(23.217773%, 57.10907%, 98.368835%)" offset="0.65625"/><stop stop-opacity="1" stop-color="rgb(23.059082%, 56.813049%, 98.403931%)" offset="0.671875"/><stop stop-opacity="1" stop-color="rgb(22.898865%, 56.489563%, 98.432922%)" offset="0.6875"/><stop stop-opacity="1" stop-color="rgb(22.749329%, 56.182861%, 98.458862%)" offset="0.703125"/><stop stop-opacity="1" stop-color="rgb(22.598267%, 55.87616%, 98.484802%)" offset="0.71875"/><stop stop-opacity="1" stop-color="rgb(22.44873%, 55.569458%, 98.512268%)" offset="0.734375"/><stop stop-opacity="1" stop-color="rgb(22.299194%, 55.264282%, 98.538208%)" offset="0.75"/><stop stop-opacity="1" stop-color="rgb(22.149658%, 54.957581%, 98.564148%)" offset="0.765625"/><stop stop-opacity="1" stop-color="rgb(21.998596%, 54.650879%, 98.590088%)" offset="0.78125"/><stop stop-opacity="1" stop-color="rgb(21.84906%, 54.344177%, 98.616028%)" offset="0.796875"/><stop stop-opacity="1" stop-color="rgb(21.699524%, 54.037476%, 98.641968%)" offset="0.8125"/><stop stop-opacity="1" stop-color="rgb(21.548462%, 53.730774%, 98.667908%)" offset="0.828125"/><stop stop-opacity="1" stop-color="rgb(21.398926%, 53.425598%, 98.693848%)" offset="0.84375"/><stop stop-opacity="1" stop-color="rgb(21.24939%, 53.118896%, 98.719788%)" offset="0.859375"/><stop stop-opacity="1" stop-color="rgb(21.099854%, 52.812195%, 98.745728%)" offset="0.875"/><stop stop-opacity="1" stop-color="rgb(20.948792%, 52.505493%, 98.771667%)" offset="0.890625"/><stop stop-opacity="1" stop-color="rgb(20.823669%, 52.249146%, 98.799133%)" offset="0.90625"/><stop stop-opacity="1" stop-color="rgb(20.71991%, 52.0401%, 98.838806%)" offset="0.9375"/><stop stop-opacity="1" stop-color="rgb(20.614624%, 51.829529%, 98.890686%)" offset="0.96875"/><stop stop-opacity="1" stop-color="rgb(20.507812%, 51.617432%, 98.944092%)" offset="1"/></linearGradient><clipPath id="id4"><path d="M 67 167 L 143 167 L 143 217 L 67 217 Z M 67 167 " clip-rule="nonzero"/></clipPath><clipPath id="id5"><path d="M 138.378906 171.34375 C 139.628906 170.09375 140.964844 168.941406 142.324219 167.882812 L 67.25 167.882812 C 68.039062 194.929688 90.253906 216.628906 117.554688 216.628906 L 128.9375 216.628906 C 122.996094 201.484375 126.136719 183.558594 138.378906 171.34375 Z M 138.378906 171.34375 " clip-rule="nonzero"/></clipPath><linearGradient x1="47.106068" gradientTransform="matrix(1.360289, 0, 0, 1.357135, 37.500004, 102.834808)" y1="41.128005" x2="59.869967" gradientUnits="userSpaceOnUse" y2="88.483312" id="id6"><stop stop-opacity="1" stop-color="rgb(24.021912%, 58.534241%, 98.168945%)" offset="0"/><stop stop-opacity="1" stop-color="rgb(23.939514%, 58.389282%, 98.188782%)" offset="0.015625"/><stop stop-opacity="1" stop-color="rgb(23.774719%, 58.097839%, 98.22998%)" offset="0.03125"/><stop stop-opacity="1" stop-color="rgb(23.61145%, 57.807922%, 98.271179%)" offset="0.046875"/><stop stop-opacity="1" stop-color="rgb(23.446655%, 57.516479%, 98.310852%)" offset="0.0625"/><stop stop-opacity="1" stop-color="rgb(23.283386%, 57.226562%, 98.352051%)" offset="0.078125"/><stop stop-opacity="1" stop-color="rgb(23.13385%, 56.956482%, 98.388672%)" offset="0.09375"/><stop stop-opacity="1" stop-color="rgb(22.979736%, 56.65741%, 98.419189%)" offset="0.125"/><stop stop-opacity="1" stop-color="rgb(22.807312%, 56.304932%, 98.449707%)" offset="0.15625"/><stop stop-opacity="1" stop-color="rgb(22.636414%, 55.952454%, 98.478699%)" offset="0.1875"/><stop stop-opacity="1" stop-color="rgb(22.463989%, 55.601501%, 98.509216%)" offset="0.21875"/><stop stop-opacity="1" stop-color="rgb(22.291565%, 55.249023%, 98.539734%)" offset="0.25"/><stop stop-opacity="1" stop-color="rgb(22.119141%, 54.898071%, 98.568726%)" offset="0.28125"/><stop stop-opacity="1" stop-color="rgb(21.946716%, 54.545593%, 98.599243%)" offset="0.292852"/><stop stop-opacity="1" stop-color="rgb(21.861267%, 54.370117%, 98.614502%)" offset="0.3125"/><stop stop-opacity="1" stop-color="rgb(21.774292%, 54.193115%, 98.629761%)" offset="0.34375"/><stop stop-opacity="1" stop-color="rgb(21.603394%, 53.842163%, 98.658752%)" offset="0.375"/><stop stop-opacity="1" stop-color="rgb(21.430969%, 53.489685%, 98.68927%)" offset="0.40625"/><stop stop-opacity="1" stop-color="rgb(21.258545%, 53.138733%, 98.718262%)" offset="0.4375"/><stop stop-opacity="1" stop-color="rgb(21.086121%, 52.786255%, 98.748779%)" offset="0.46875"/><stop stop-opacity="1" stop-color="rgb(20.913696%, 52.433777%, 98.779297%)" offset="0.5"/><stop stop-opacity="1" stop-color="rgb(20.758057%, 52.11792%, 98.823547%)" offset="0.5625"/><stop stop-opacity="1" stop-color="rgb(20.626831%, 51.855469%, 98.884583%)" offset="0.625"/><stop stop-opacity="1" stop-color="rgb(20.506287%, 51.612854%, 98.945618%)" offset="0.6875"/><stop stop-opacity="1" stop-color="rgb(20.384216%, 51.370239%, 99.006653%)" offset="0.707148"/><stop stop-opacity="1" stop-color="rgb(20.324707%, 51.249695%, 99.03717%)" offset="0.75"/><stop stop-opacity="1" stop-color="rgb(20.263672%, 51.127625%, 99.066162%)" offset="0.8125"/><stop stop-opacity="1" stop-color="rgb(20.141602%, 50.88501%, 99.127197%)" offset="0.875"/><stop stop-opacity="1" stop-color="rgb(20.040894%, 50.682068%, 99.177551%)" offset="1"/></linearGradient><clipPath id="id7"><path d="M 133 167 L 203 167 L 203 264 L 133 264 Z M 133 167 " clip-rule="nonzero"/></clipPath><clipPath id="id8"><path d="M 169.503906 167.273438 C 166.796875 167.175781 164.171875 167.394531 161.625 167.882812 C 145.859375 170.9375 133.945312 184.777344 133.945312 201.417969 C 133.945312 206.886719 135.25 212.042969 137.550781 216.628906 C 138.066406 217.675781 138.625 218.695312 139.25 219.671875 L 139.222656 219.683594 L 168.195312 263.371094 L 196.410156 220.8125 C 196.625 220.5 196.832031 220.171875 197.046875 219.847656 L 197.238281 219.5625 C 200.777344 213.929688 202.71875 207.210938 202.433594 200.003906 C 201.714844 182.089844 187.457031 167.921875 169.503906 167.273438 Z M 168.292969 218.488281 C 165.542969 218.488281 162.960938 217.8125 160.6875 216.628906 C 155.382812 213.875 151.75 208.367188 151.75 201.988281 C 151.75 192.867188 159.152344 185.484375 168.292969 185.484375 C 168.863281 185.484375 169.421875 185.511719 169.976562 185.566406 C 178.316406 186.40625 184.832031 193.4375 184.832031 201.988281 C 184.832031 211.105469 177.433594 218.488281 168.292969 218.488281 Z M 168.292969 218.488281 " clip-rule="nonzero"/></clipPath><linearGradient x1="88.051062" gradientTransform="matrix(1.360289, 0, 0, 1.357135, 37.500004, 102.834808)" y1="42.787196" x2="109.2861" gradientUnits="userSpaceOnUse" y2="121.571283" id="id9"><stop stop-opacity="1" stop-color="rgb(22.206116%, 55.075073%, 98.554993%)" offset="0"/><stop stop-opacity="1" stop-color="rgb(22.134399%, 54.928589%, 98.5672%)" offset="0.015625"/><stop stop-opacity="1" stop-color="rgb(21.990967%, 54.63562%, 98.591614%)" offset="0.03125"/><stop stop-opacity="1" stop-color="rgb(21.847534%, 54.342651%, 98.616028%)" offset="0.046875"/><stop stop-opacity="1" stop-color="rgb(21.705627%, 54.049683%, 98.641968%)" offset="0.0625"/><stop stop-opacity="1" stop-color="rgb(21.562195%, 53.75824%, 98.666382%)" offset="0.078125"/><stop stop-opacity="1" stop-color="rgb(21.418762%, 53.465271%, 98.690796%)" offset="0.09375"/><stop stop-opacity="1" stop-color="rgb(21.27533%, 53.172302%, 98.716736%)" offset="0.109375"/><stop stop-opacity="1" stop-color="rgb(21.131897%, 52.879333%, 98.74115%)" offset="0.125"/><stop stop-opacity="1" stop-color="rgb(20.988464%, 52.586365%, 98.765564%)" offset="0.140625"/><stop stop-opacity="1" stop-color="rgb(20.852661%, 52.310181%, 98.791504%)" offset="0.15625"/><stop stop-opacity="1" stop-color="rgb(20.739746%, 52.079773%, 98.828125%)" offset="0.16126"/><stop stop-opacity="1" stop-color="rgb(20.689392%, 51.979065%, 98.854065%)" offset="0.1875"/><stop stop-opacity="1" stop-color="rgb(20.639038%, 51.878357%, 98.878479%)" offset="0.21875"/><stop stop-opacity="1" stop-color="rgb(20.53833%, 51.676941%, 98.928833%)" offset="0.25"/><stop stop-opacity="1" stop-color="rgb(20.437622%, 51.475525%, 98.979187%)" offset="0.28125"/><stop stop-opacity="1" stop-color="rgb(20.335388%, 51.272583%, 99.029541%)" offset="0.3125"/><stop stop-opacity="1" stop-color="rgb(20.23468%, 51.071167%, 99.079895%)" offset="0.34375"/><stop stop-opacity="1" stop-color="rgb(20.133972%, 50.869751%, 99.130249%)" offset="0.375"/><stop stop-opacity="1" stop-color="rgb(20.040894%, 50.683594%, 99.177551%)" offset="0.5"/><stop stop-opacity="1" stop-color="rgb(19.999695%, 50.59967%, 99.198914%)" offset="0.83874"/><stop stop-opacity="1" stop-color="rgb(19.999695%, 50.59967%, 99.198914%)" offset="1"/></linearGradient></defs><g clip-path="url(#id1)"><g clip-path="url(#id2)"><path fill="url(#id3)" d="M 37.5 102.835938 L 37.5 178.195312 L 203.769531 178.195312 L 203.769531 102.835938 Z M 37.5 102.835938 " fill-rule="nonzero"/></g></g><g clip-path="url(#id4)"><g clip-path="url(#id5)"><path fill="url(#id6)" d="M 67.25 167.882812 L 67.25 216.628906 L 142.324219 216.628906 L 142.324219 167.882812 Z M 67.25 167.882812 " fill-rule="nonzero"/></g></g><g clip-path="url(#id7)"><g clip-path="url(#id8)"><path fill="url(#id9)" d="M 133.945312 167.175781 L 133.945312 263.371094 L 202.71875 263.371094 L 202.71875 167.175781 Z M 133.945312 167.175781 " fill-rule="nonzero"/></g></g><g fill="#767676" fill-opacity="1"><g transform="translate(220.230429, 238.415458)"><g><path d="M 14.90625 0.28125 C 10.226562 0.28125 6.785156 -1.148438 4.578125 -4.015625 C 2.816406 -6.265625 1.9375 -9.113281 1.9375 -12.5625 L 1.9375 -27.015625 L 9.046875 -27.015625 L 9.046875 -12.421875 C 9.046875 -7.585938 11 -5.171875 14.90625 -5.171875 C 18.726562 -5.171875 20.640625 -7.585938 20.640625 -12.421875 L 20.640625 -27.015625 L 27.9375 -27.015625 L 27.9375 -12.5625 C 27.9375 -9.082031 27.054688 -6.234375 25.296875 -4.015625 C 23.023438 -1.148438 19.5625 0.28125 14.90625 0.28125 Z M 14.90625 0.28125 "/></g></g></g><g fill="#767676" fill-opacity="1"><g transform="translate(250.09834, 238.415458)"><g><path d="M 21.796875 -13.9375 C 23.117188 -13.445312 24.125 -12.644531 24.8125 -11.53125 C 25.507812 -10.425781 25.859375 -9.257812 25.859375 -8.03125 C 25.859375 -5.570312 24.910156 -3.617188 23.015625 -2.171875 C 21.117188 -0.722656 18.359375 0 14.734375 0 L 2.171875 0 L 2.171875 -27.015625 L 13.4375 -27.015625 C 17.070312 -27.015625 19.832031 -26.28125 21.71875 -24.8125 C 23.613281 -23.351562 24.5625 -21.394531 24.5625 -18.9375 C 24.5625 -17.914062 24.328125 -16.90625 23.859375 -15.90625 C 23.398438 -14.90625 22.710938 -14.25 21.796875 -13.9375 Z M 9.28125 -15.796875 L 13.4375 -15.796875 C 16.082031 -15.796875 17.40625 -16.71875 17.40625 -18.5625 C 17.40625 -19.488281 17.039062 -20.21875 16.3125 -20.75 C 15.59375 -21.289062 14.632812 -21.5625 13.4375 -21.5625 L 9.28125 -21.5625 Z M 14.78125 -5.453125 C 17.425781 -5.453125 18.75 -6.375 18.75 -8.21875 C 18.75 -9.175781 18.414062 -9.832031 17.75 -10.1875 C 17.09375 -10.539062 16.101562 -10.71875 14.78125 -10.71875 L 9.28125 -10.71875 L 9.28125 -5.453125 Z M 14.78125 -5.453125 "/></g></g></g><g fill="#767676" fill-opacity="1"><g transform="translate(276.734784, 238.415458)"><g><path d="M 2.171875 -27.015625 L 22.53125 -27.015625 L 22.53125 -21.5625 L 9.28125 -21.5625 L 9.28125 -16.15625 L 19.34375 -16.15625 L 19.34375 -10.625 L 9.28125 -10.625 L 9.28125 -5.453125 L 22.53125 -5.453125 L 22.53125 0 L 2.171875 0 Z M 2.171875 -27.015625 "/></g></g></g><g fill="#767676" fill-opacity="1"><g transform="translate(300.739906, 238.415458)"><g><path d="M 25.578125 -17.453125 C 25.578125 -15.878906 25.164062 -14.320312 24.34375 -12.78125 C 23.53125 -11.25 22.34375 -10.003906 20.78125 -9.046875 L 25.078125 0 L 17.21875 0 L 13.53125 -7.84375 L 9.28125 -7.84375 L 9.28125 0 L 2.171875 0 L 2.171875 -27.015625 L 14.734375 -27.015625 C 18.296875 -27.015625 20.992188 -26.097656 22.828125 -24.265625 C 24.660156 -22.429688 25.578125 -20.160156 25.578125 -17.453125 Z M 9.28125 -13.25 L 14.40625 -13.25 C 15.601562 -13.25 16.585938 -13.625 17.359375 -14.375 C 18.128906 -15.132812 18.515625 -16.144531 18.515625 -17.40625 C 18.515625 -18.664062 18.128906 -19.671875 17.359375 -20.421875 C 16.585938 -21.179688 15.601562 -21.5625 14.40625 -21.5625 L 9.28125 -21.5625 Z M 9.28125 -13.25 "/></g></g></g><g fill="#3381fd" fill-opacity="1"><g transform="translate(216.806101, 263.580292)"><g><path d="M 3.34375 -1.984375 L 7.546875 -1.984375 L 7.546875 0 L 0.953125 0 L 0.953125 -11.859375 L 3.34375 -11.859375 Z M 3.34375 -1.984375 "/></g></g></g><g fill="#3381fd" fill-opacity="1"><g transform="translate(229.474325, 263.580292)"><g><path d="M 6.609375 -2.421875 L 3.34375 -2.421875 L 2.703125 0 L 0.171875 0 L 3.890625 -11.859375 L 6.078125 -11.859375 L 9.796875 0 L 7.25 0 Z M 3.859375 -4.421875 L 6.078125 -4.421875 L 4.96875 -8.640625 Z M 3.859375 -4.421875 "/></g></g></g><g fill="#3381fd" fill-opacity="1"><g transform="translate(244.118126, 263.580292)"><g><path d="M 0.953125 0 L 0.953125 -11.859375 L 4.609375 -11.859375 C 5.847656 -11.859375 6.789062 -11.582031 7.4375 -11.03125 C 8.082031 -10.476562 8.40625 -9.671875 8.40625 -8.609375 C 8.40625 -8.003906 8.269531 -7.484375 8 -7.046875 C 7.738281 -6.617188 7.375 -6.300781 6.90625 -6.09375 C 7.4375 -5.945312 7.847656 -5.644531 8.140625 -5.1875 C 8.429688 -4.726562 8.578125 -4.160156 8.578125 -3.484375 C 8.578125 -2.335938 8.257812 -1.46875 7.625 -0.875 C 6.988281 -0.289062 6.070312 0 4.875 0 Z M 3.34375 -5.15625 L 3.34375 -1.984375 L 4.875 -1.984375 C 5.300781 -1.984375 5.625 -2.113281 5.84375 -2.375 C 6.070312 -2.644531 6.1875 -3.023438 6.1875 -3.515625 C 6.1875 -4.578125 5.800781 -5.125 5.03125 -5.15625 Z M 3.34375 -6.890625 L 4.59375 -6.890625 C 5.53125 -6.890625 6 -7.378906 6 -8.359375 C 6 -8.890625 5.890625 -9.269531 5.671875 -9.5 C 5.453125 -9.738281 5.097656 -9.859375 4.609375 -9.859375 L 3.34375 -9.859375 Z M 3.34375 -6.890625 "/></g></g></g><g fill="#3381fd" fill-opacity="1"><g transform="translate(258.160311, 263.580292)"><g><path d="M 5.953125 -3.109375 C 5.953125 -3.585938 5.828125 -3.953125 5.578125 -4.203125 C 5.335938 -4.453125 4.890625 -4.707031 4.234375 -4.96875 C 3.046875 -5.425781 2.191406 -5.957031 1.671875 -6.5625 C 1.148438 -7.164062 0.890625 -7.878906 0.890625 -8.703125 C 0.890625 -9.703125 1.242188 -10.503906 1.953125 -11.109375 C 2.660156 -11.710938 3.5625 -12.015625 4.65625 -12.015625 C 5.382812 -12.015625 6.03125 -11.859375 6.59375 -11.546875 C 7.164062 -11.242188 7.601562 -10.8125 7.90625 -10.25 C 8.21875 -9.695312 8.375 -9.066406 8.375 -8.359375 L 5.984375 -8.359375 C 5.984375 -8.910156 5.863281 -9.328125 5.625 -9.609375 C 5.394531 -9.898438 5.054688 -10.046875 4.609375 -10.046875 C 4.191406 -10.046875 3.863281 -9.921875 3.625 -9.671875 C 3.394531 -9.429688 3.28125 -9.101562 3.28125 -8.6875 C 3.28125 -8.363281 3.410156 -8.066406 3.671875 -7.796875 C 3.929688 -7.535156 4.394531 -7.265625 5.0625 -6.984375 C 6.21875 -6.566406 7.054688 -6.050781 7.578125 -5.4375 C 8.109375 -4.832031 8.375 -4.0625 8.375 -3.125 C 8.375 -2.09375 8.046875 -1.285156 7.390625 -0.703125 C 6.734375 -0.128906 5.835938 0.15625 4.703125 0.15625 C 3.941406 0.15625 3.242188 0 2.609375 -0.3125 C 1.984375 -0.625 1.492188 -1.070312 1.140625 -1.65625 C 0.785156 -2.25 0.609375 -2.941406 0.609375 -3.734375 L 3 -3.734375 C 3 -3.046875 3.128906 -2.546875 3.390625 -2.234375 C 3.660156 -1.929688 4.097656 -1.78125 4.703125 -1.78125 C 5.535156 -1.78125 5.953125 -2.222656 5.953125 -3.109375 Z M 5.953125 -3.109375 "/></g></g></g></svg>