<svg xmlns="http://www.w3.org/2000/svg" xmlns:xlink="http://www.w3.org/1999/xlink" width="500" zoomAndPan="magnify" viewBox="0 0 375 374.999991" height="500" preserveAspectRatio="xMidYMid meet" version="1.0"><defs><g/><clipPath id="82f01386b6"><path d="M 145 120 L 244 120 L 244 210.847656 L 145 210.847656 Z M 145 120 " clip-rule="nonzero"/></clipPath><clipPath id="0fd1766b82"><path d="M 131 99.335938 L 230 99.335938 L 230 186 L 131 186 Z M 131 99.335938 " clip-rule="nonzero"/></clipPath><clipPath id="a7c5f96fb5"><path d="M 179 99.335938 L 291.902344 99.335938 L 291.902344 208 L 179 208 Z M 179 99.335938 " clip-rule="nonzero"/></clipPath><clipPath id="4ffd1c84eb"><path d="M 83.601562 102 L 197 102 L 197 210.847656 L 83.601562 210.847656 Z M 83.601562 102 " clip-rule="nonzero"/></clipPath><clipPath id="4b352c719a"><path d="M 2.667969 2 L 372.773438 2 L 372.773438 372.773438 L 2.667969 372.773438 Z M 2.667969 2 " clip-rule="nonzero"/></clipPath><clipPath id="18142c8ecc"><path d="M 187.5 372.332031 C 138.152344 372.332031 91.6875 353.125 56.816406 318.183594 C 21.875 283.3125 2.667969 236.847656 2.667969 187.5 C 2.667969 138.152344 21.875 91.6875 56.816406 56.816406 C 91.6875 21.875 138.152344 2.667969 187.5 2.667969 C 236.847656 2.667969 283.3125 21.875 318.183594 56.816406 C 353.125 91.761719 372.332031 138.152344 372.332031 187.5 C 372.332031 236.847656 353.125 283.3125 318.183594 318.183594 C 283.3125 353.125 236.847656 372.332031 187.5 372.332031 Z M 187.5 13.75 C 141.109375 13.75 97.449219 31.847656 64.648438 64.648438 C 31.847656 97.449219 13.75 141.109375 13.75 187.5 C 13.75 233.890625 31.847656 277.550781 64.648438 310.351562 C 97.449219 343.152344 141.109375 361.25 187.5 361.25 C 233.890625 361.25 277.550781 343.152344 310.351562 310.351562 C 343.152344 277.550781 361.25 233.890625 361.25 187.5 C 361.25 141.109375 343.152344 97.449219 310.351562 64.648438 C 277.550781 31.847656 233.890625 13.75 187.5 13.75 Z M 187.5 13.75 " clip-rule="nonzero"/></clipPath></defs><g clip-path="url(#82f01386b6)"><path fill="#f2e9e4" d="M 235.253906 202.367188 L 227.277344 202.367188 L 145.152344 120.632812 L 145.152344 132.589844 L 215.261719 202.367188 L 223.761719 210.824219 L 243.75 210.824219 L 243.75 173.546875 L 235.253906 165.089844 Z M 235.253906 202.367188 " fill-opacity="1" fill-rule="nonzero"/></g><g clip-path="url(#0fd1766b82)"><path fill="#f2e9e4" d="M 140.25 107.816406 L 151.929688 107.816406 L 229.808594 185.3125 L 229.808594 173.355469 L 163.953125 107.816406 L 155.457031 99.359375 L 131.753906 99.359375 L 131.753906 133.84375 L 140.25 142.296875 Z M 140.25 107.816406 " fill-opacity="1" fill-rule="nonzero"/></g><g clip-path="url(#a7c5f96fb5)"><path fill="#9a8c98" d="M 276.921875 200.863281 C 272.589844 200.863281 269.082031 197.367188 269.082031 193.058594 C 269.082031 191.746094 269.40625 190.507812 269.980469 189.421875 C 271.292969 186.945312 273.910156 185.253906 276.921875 185.253906 C 277.117188 185.253906 277.308594 185.261719 277.5 185.277344 C 281.5625 185.570312 284.761719 188.941406 284.761719 193.058594 C 284.761719 197.371094 281.253906 200.863281 276.921875 200.863281 Z M 271.628906 179.109375 L 235.253906 142.90625 L 200.003906 107.816406 L 235.253906 107.816406 L 235.253906 135.472656 L 243.75 143.921875 L 243.75 99.359375 L 179.492188 99.359375 L 187.988281 107.816406 L 235.253906 154.863281 L 264.8125 184.28125 C 263.007812 186.742188 261.941406 189.777344 261.941406 193.058594 C 261.941406 201.292969 268.648438 207.964844 276.921875 207.964844 C 285.195312 207.964844 291.902344 201.289062 291.902344 193.058594 C 291.902344 184.824219 285.195312 178.152344 276.921875 178.152344 C 275.058594 178.152344 273.273438 178.488281 271.628906 179.109375 Z M 271.628906 179.109375 " fill-opacity="1" fill-rule="evenodd"/></g><g clip-path="url(#4ffd1c84eb)"><path fill="#9a8c98" d="M 98.582031 109.320312 C 102.910156 109.320312 106.421875 112.816406 106.421875 117.125 C 106.421875 118.4375 106.097656 119.675781 105.523438 120.757812 C 104.207031 123.238281 101.59375 124.929688 98.582031 124.929688 C 98.386719 124.929688 98.195312 124.921875 98.003906 124.90625 C 93.941406 124.613281 90.738281 121.238281 90.738281 117.125 C 90.738281 112.8125 94.25 109.320312 98.582031 109.320312 Z M 103.875 131.074219 L 140.25 167.277344 L 175.5 202.367188 L 140.25 202.367188 L 140.25 174.707031 L 131.753906 166.261719 L 131.753906 210.824219 L 196.011719 210.824219 L 187.515625 202.367188 L 140.25 155.320312 L 110.691406 125.902344 C 112.496094 123.441406 113.5625 120.40625 113.5625 117.125 C 113.5625 108.890625 106.855469 102.21875 98.582031 102.21875 C 90.308594 102.21875 83.601562 108.890625 83.601562 117.125 C 83.601562 125.359375 90.308594 132.03125 98.582031 132.03125 C 100.445312 132.03125 102.226562 131.695312 103.875 131.074219 Z M 103.875 131.074219 " fill-opacity="1" fill-rule="evenodd"/></g><g fill="#9a8c98" fill-opacity="1"><g transform="translate(52.256737, 264.166387)"><g><path d="M 3.597656 0 L 10.359375 0 L 10.359375 -18.363281 L 23.585938 0 L 29.367188 0 L 29.367188 -29.964844 L 22.601562 -29.964844 L 22.601562 -11.730469 L 9.375 -29.964844 L 3.597656 -29.964844 Z M 3.597656 0 "/></g></g></g><g fill="#9a8c98" fill-opacity="1"><g transform="translate(84.145741, 264.166387)"><g><path d="M 3.597656 0 L 10.402344 0 L 10.402344 -29.964844 L 3.597656 -29.964844 Z M 3.597656 0 "/></g></g></g><g fill="#9a8c98" fill-opacity="1"><g transform="translate(97.072468, 264.166387)"><g><path d="M 17.335938 0.597656 C 25.214844 0.597656 31.335938 -4.195312 32.832031 -11.472656 L 25.8125 -11.472656 C 24.570312 -8.046875 21.402344 -5.863281 17.464844 -5.863281 C 12.371094 -5.863281 8.777344 -9.589844 8.777344 -14.980469 C 8.777344 -20.375 12.414062 -24.101562 17.507812 -24.101562 C 21.316406 -24.101562 24.441406 -22.046875 25.597656 -18.75 L 32.617188 -18.75 C 30.90625 -25.941406 24.914062 -30.5625 17.292969 -30.5625 C 8.21875 -30.5625 1.839844 -24.144531 1.839844 -14.980469 C 1.839844 -5.820312 8.21875 0.597656 17.335938 0.597656 Z M 17.335938 0.597656 "/></g></g></g><g fill="#9a8c98" fill-opacity="1"><g transform="translate(130.545239, 264.166387)"><g><path d="M 17.808594 0.597656 C 27.183594 0.597656 33.816406 -5.820312 33.816406 -14.980469 C 33.816406 -24.144531 27.183594 -30.5625 17.808594 -30.5625 C 8.433594 -30.5625 1.839844 -24.144531 1.839844 -14.980469 C 1.839844 -5.820312 8.433594 0.597656 17.808594 0.597656 Z M 8.777344 -14.980469 C 8.777344 -20.375 12.5 -24.101562 17.808594 -24.101562 C 23.160156 -24.101562 26.839844 -20.375 26.839844 -14.980469 C 26.839844 -9.589844 23.160156 -5.863281 17.808594 -5.863281 C 12.5 -5.863281 8.777344 -9.589844 8.777344 -14.980469 Z M 8.777344 -14.980469 "/></g></g></g><g fill="#f2e9e4" fill-opacity="1"><g transform="translate(165.119093, 264.166387)"><g><path d="M 14.039062 0.597656 C 21.148438 0.597656 25.511719 -2.78125 25.511719 -8.433594 C 25.511719 -13.183594 22.386719 -16.007812 14.941406 -17.765625 C 10.359375 -18.835938 8.777344 -19.992188 8.777344 -21.832031 C 8.777344 -23.800781 10.53125 -25 13.398438 -25 C 16.523438 -25 18.40625 -23.371094 18.40625 -20.675781 L 24.957031 -20.675781 C 24.957031 -26.710938 20.417969 -30.5625 13.3125 -30.5625 C 6.421875 -30.5625 2.140625 -27.183594 2.140625 -21.703125 C 2.140625 -16.824219 5.4375 -13.914062 12.457031 -12.414062 C 16.695312 -11.515625 18.621094 -10.273438 18.621094 -8.175781 C 18.621094 -6.164062 16.824219 -5.007812 13.996094 -5.007812 C 10.703125 -5.007812 8.5625 -6.679688 8.5625 -9.546875 L 1.882812 -9.546875 C 1.882812 -3.339844 6.507812 0.597656 14.039062 0.597656 Z M 14.039062 0.597656 "/></g></g></g><g fill="#f2e9e4" fill-opacity="1"><g transform="translate(191.486356, 264.166387)"><g><path d="M 17.335938 0.597656 C 25.214844 0.597656 31.335938 -4.195312 32.832031 -11.472656 L 25.8125 -11.472656 C 24.570312 -8.046875 21.402344 -5.863281 17.464844 -5.863281 C 12.371094 -5.863281 8.777344 -9.589844 8.777344 -14.980469 C 8.777344 -20.375 12.414062 -24.101562 17.507812 -24.101562 C 21.316406 -24.101562 24.441406 -22.046875 25.597656 -18.75 L 32.617188 -18.75 C 30.90625 -25.941406 24.914062 -30.5625 17.292969 -30.5625 C 8.21875 -30.5625 1.839844 -24.144531 1.839844 -14.980469 C 1.839844 -5.820312 8.21875 0.597656 17.335938 0.597656 Z M 17.335938 0.597656 "/></g></g></g><g fill="#f2e9e4" fill-opacity="1"><g transform="translate(224.959125, 264.166387)"><g><path d="M 3.597656 0 L 10.402344 0 L 10.402344 -9.332031 L 14.898438 -9.332031 L 20.246094 0 L 28.125 0 L 21.917969 -10.402344 C 25.511719 -11.984375 27.609375 -15.238281 27.609375 -19.648438 C 27.609375 -26.027344 23.242188 -29.964844 16.394531 -29.964844 L 3.597656 -29.964844 Z M 10.316406 -15.066406 L 10.316406 -24.144531 L 15.496094 -24.144531 C 18.835938 -24.144531 20.71875 -22.515625 20.71875 -19.605469 C 20.71875 -16.695312 18.835938 -15.066406 15.496094 -15.066406 Z M 10.316406 -15.066406 "/></g></g></g><g fill="#f2e9e4" fill-opacity="1"><g transform="translate(254.023051, 264.166387)"><g><path d="M 3.597656 0 L 10.402344 0 L 10.402344 -29.964844 L 3.597656 -29.964844 Z M 3.597656 0 "/></g></g></g><g fill="#f2e9e4" fill-opacity="1"><g transform="translate(266.949775, 264.166387)"><g><path d="M 3.597656 0 L 10.402344 0 L 10.402344 -8.347656 L 15.324219 -8.347656 C 22.558594 -8.347656 27.226562 -12.585938 27.226562 -19.132812 C 27.226562 -25.726562 22.558594 -29.964844 15.324219 -29.964844 L 3.597656 -29.964844 Z M 10.359375 -14.210938 L 10.359375 -24.015625 L 14.769531 -24.015625 C 18.320312 -24.015625 20.289062 -22.214844 20.289062 -19.09375 C 20.289062 -15.96875 18.320312 -14.210938 14.769531 -14.210938 Z M 10.359375 -14.210938 "/></g></g></g><g fill="#f2e9e4" fill-opacity="1"><g transform="translate(294.344338, 264.166387)"><g><path d="M 10.789062 0 L 17.59375 0 L 17.59375 -23.585938 L 27.097656 -23.585938 L 27.097656 -29.964844 L 1.285156 -29.964844 L 1.285156 -23.585938 L 10.789062 -23.585938 Z M 10.789062 0 "/></g></g></g><g clip-path="url(#4b352c719a)"><g clip-path="url(#18142c8ecc)"><path fill="#9a8c98" d="M 2.667969 2.667969 L 372.035156 2.667969 L 372.035156 372.035156 L 2.667969 372.035156 Z M 2.667969 2.667969 " fill-opacity="1" fill-rule="nonzero"/></g></g></svg>